<svg xmlns="http://www.w3.org/2000/svg" viewBox="0 0 1200 500" role="img" aria-labelledby="title desc">
  <title id="title">Registro Brasa Points</title>
  <desc id="desc">Ilustracion de una tarjeta digital de fidelizacion con icono de fuego.</desc>
  <defs>
    <linearGradient id="card" x1="0" y1="0" x2="1" y2="1">
      <stop offset="0" stop-color="#ffe5d1"/>
      <stop offset="1" stop-color="#ffc89f"/>
    </linearGradient>
    <linearGradient id="ember" x1="0" y1="1" x2="0" y2="0">
      <stop offset="0" stop-color="#ff5823"/>
      <stop offset="1" stop-color="#ffb35f"/>
    </linearGradient>
  </defs>
  <rect width="1200" height="500" fill="#fff8f2" rx="26"/>
  <rect x="150" y="90" width="900" height="320" fill="url(#card)" rx="28"/>
  <rect x="200" y="150" width="320" height="24" fill="#c9481f" opacity="0.85" rx="12"/>
  <rect x="200" y="200" width="460" height="16" fill="#8b3a21" opacity="0.55" rx="8"/>
  <rect x="200" y="230" width="400" height="16" fill="#8b3a21" opacity="0.45" rx="8"/>
  <rect x="200" y="260" width="360" height="16" fill="#8b3a21" opacity="0.35" rx="8"/>
  <circle cx="850" cy="245" r="82" fill="#2c1a16"/>
  <path d="M815 286c23-58 43-58 64 0-25-11-39-11-64 0z" fill="url(#ember)"/>
  <path d="M846 286c20-74 46-74 68 0-29-12-43-12-68 0z" fill="url(#ember)"/>
</svg>
