<svg xmlns="http://www.w3.org/2000/svg" viewBox="0 0 1200 700" role="img" aria-labelledby="title desc">
  <title id="title">Parrilla Brasaland</title>
  <desc id="desc">Ilustracion de una parrilla con fuego y pinchos en un ambiente calido.</desc>
  <defs>
    <linearGradient id="bg" x1="0" y1="0" x2="1" y2="1">
      <stop offset="0" stop-color="#3a120d"/>
      <stop offset="1" stop-color="#a73718"/>
    </linearGradient>
    <linearGradient id="flame" x1="0" y1="1" x2="0" y2="0">
      <stop offset="0" stop-color="#ff4f1f"/>
      <stop offset="1" stop-color="#ffd06a"/>
    </linearGradient>
  </defs>
  <rect width="1200" height="700" fill="url(#bg)" rx="28"/>
  <g opacity="0.25" fill="#ffffff">
    <circle cx="110" cy="95" r="12"/>
    <circle cx="1030" cy="140" r="10"/>
    <circle cx="930" cy="610" r="14"/>
    <circle cx="260" cy="580" r="9"/>
  </g>
  <rect x="210" y="410" width="780" height="150" rx="26" fill="#1e1412"/>
  <g stroke="#66504a" stroke-width="10">
    <line x1="260" y1="445" x2="940" y2="445"/>
    <line x1="260" y1="475" x2="940" y2="475"/>
    <line x1="260" y1="505" x2="940" y2="505"/>
  </g>
  <g>
    <path d="M410 430c28-72 55-72 80 0-33-14-52-14-80 0z" fill="url(#flame)"/>
    <path d="M540 430c30-86 64-86 95 0-40-16-60-16-95 0z" fill="url(#flame)"/>
    <path d="M690 430c24-62 48-62 72 0-30-12-44-12-72 0z" fill="url(#flame)"/>
    <path d="M805 430c28-72 56-72 82 0-34-14-54-14-82 0z" fill="url(#flame)"/>
  </g>
  <g fill="#f1b57d">
    <rect x="360" y="372" width="92" height="24" rx="12"/>
    <rect x="510" y="360" width="120" height="24" rx="12"/>
    <rect x="675" y="375" width="98" height="24" rx="12"/>
    <rect x="808" y="362" width="120" height="24" rx="12"/>
  </g>
</svg>
